<svg width="24" height="23" viewBox="0 0 24 23" fill="none" xmlns="http://www.w3.org/2000/svg">
<path d="M11.6667 2.33333C9.19131 2.33333 6.81734 3.31666 5.067 5.067C3.31666 6.81734 2.33333 9.19131 2.33333 11.6667H5.83333C6.45217 11.6667 7.04566 11.9125 7.48325 12.3501C7.92083 12.7877 8.16667 13.3812 8.16667 14V19.8333C8.16667 20.4522 7.92083 21.0457 7.48325 21.4832C7.04566 21.9208 6.45217 22.1667 5.83333 22.1667H2.33333C1.71449 22.1667 1.121 21.9208 0.683417 21.4832C0.245833 21.0457 0 20.4522 0 19.8333V11.6667C0 5.22317 5.22317 0 11.6667 0C18.1102 0 23.3333 5.22317 23.3333 11.6667V19.8333C23.3333 20.4522 23.0875 21.0457 22.6499 21.4832C22.2123 21.9208 21.6188 22.1667 21 22.1667H17.5C16.8812 22.1667 16.2877 21.9208 15.8501 21.4832C15.4125 21.0457 15.1667 20.4522 15.1667 19.8333V14C15.1667 13.3812 15.4125 12.7877 15.8501 12.3501C16.2877 11.9125 16.8812 11.6667 17.5 11.6667H21C21 9.19131 20.0167 6.81734 18.2663 5.067C16.516 3.31666 14.142 2.33333 11.6667 2.33333ZM2.33333 14V19.8333H5.83333V14H2.33333ZM17.5 14V19.8333H21V14H17.5Z" fill="white"/>
</svg>
