<svg width="75" height="73" viewBox="0 0 75 73" fill="none" xmlns="http://www.w3.org/2000/svg">
<g clip-path="url(#clip0_4381_7195)">
<path d="M62.6158 38.4159C62.6158 37.9631 62.1714 38.0638 61.8258 38.0638V38.8184C62.1714 38.8184 62.6652 38.8184 62.6158 38.4159ZM63.0602 39.9755H62.6652C62.5171 39.6234 62.3196 38.919 61.8258 39.0197V39.9755H61.5296V37.7619C62.5171 37.5104 63.702 38.3656 62.3689 38.9693C62.6652 39.0197 62.9121 39.7743 63.0602 39.9755ZM63.7514 38.919C63.8008 36.9066 60.6408 36.9066 60.7396 38.919C60.6408 40.9314 63.8008 40.9314 63.7514 38.919ZM63.9489 38.919C63.9983 41.183 60.4433 41.183 60.4927 38.919C60.4433 36.6551 63.9983 36.6551 63.9489 38.919Z" fill="white"/>
<path d="M17.3399 45.1072H16.3031C16.3031 43.6985 16.2537 38.5166 16.4018 37.1582C16.5006 37.2085 13.1431 44.755 12.995 45.1072H12.5012C12.3037 44.6041 8.99562 37.4097 9.14374 37.1582C9.24249 38.1644 9.19312 43.8997 9.19312 45.1072H8.15625V35.9507H9.53874C9.83499 36.7054 12.5506 42.7929 12.6987 43.447H12.7481C12.9456 42.7929 15.6612 36.7557 16.0068 35.9507H17.3399V45.1072Z" fill="white"/>
<path d="M20.6003 45.1072H19.5635V38.5669H20.6003V45.1072ZM20.7485 36.2023C20.7485 37.1079 19.366 37.1079 19.4154 36.2023C19.4154 35.2967 20.7978 35.2967 20.7485 36.2023Z" fill="white"/>
<path d="M27.0212 44.8054C20.7013 47.7736 20.7013 36.152 27.0212 38.7178V39.7743C22.0838 36.8564 22.0344 46.8681 27.0212 43.7991V44.8054Z" fill="white"/>
<path d="M31.9043 39.6234C28.8925 38.3153 29.6825 43.447 29.5837 45.1072H28.5469V38.5669H29.5837V39.9252H29.6331C29.88 38.8687 30.9662 38.1644 31.9537 38.5669C31.9043 38.5166 31.9043 39.6234 31.9043 39.6234Z" fill="white"/>
<path d="M37.6819 41.8371C38.0275 38.416 33.1888 38.5166 33.485 41.8874C33.1888 45.1072 38.0275 45.1575 37.6819 41.8371ZM38.7187 41.7868C39.0644 46.2644 32.1025 46.365 32.3988 41.8874C32.0038 37.3595 39.0644 37.1582 38.7187 41.7868Z" fill="white"/>
<path d="M43.8015 43.3463C43.8015 45.2581 41.1847 45.6606 39.8516 44.8556V43.7488C41.5797 45.409 44.4434 43.3966 41.4315 42.2395C38.0247 40.9314 40.8391 37.2085 43.5053 38.7178V39.7743C42.6165 38.8687 40.0984 39.3718 41.1847 40.8811C42.024 41.5351 43.9497 41.8873 43.8015 43.3463Z" fill="white"/>
<path d="M50.1236 41.8371C50.4692 38.416 45.5811 38.5166 45.9267 41.8874C45.6305 45.1072 50.4692 45.1575 50.1236 41.8371ZM51.1604 41.7868C51.5061 46.2644 44.5443 46.365 44.8405 41.8874C44.4949 37.3595 51.5061 37.1582 51.1604 41.7868Z" fill="white"/>
<path d="M55.7053 36.3029C54.1747 35.4979 53.7797 37.2588 53.9278 38.5166H55.4584V39.4221H53.9278V45.1072H52.8909V39.4221H51.8047V38.5166H52.8909C52.5453 36.6551 53.6809 34.6427 55.7053 35.347V36.3029Z" fill="white"/>
<path d="M59.7525 45.0065C56.2963 46.5662 57.185 41.2836 57.0862 39.4221H56V38.5165H57.1356V36.9066C57.4812 36.806 57.8269 36.7054 58.1725 36.5544V38.5165H59.8018V39.4221H58.1725C58.4194 40.5289 57.2837 45.5096 59.8018 44.101V45.0065H59.7525Z" fill="white"/>
<path d="M4.09311 70.6882C4.14249 73.1534 0.340642 73.1534 0.439391 70.6882C0.390016 68.1727 4.14249 68.223 4.09311 70.6882Z" fill="white"/>
<path d="M27.1498 72.1975H23.7924C23.2493 71.0404 10.9056 52.3754 10.8562 51.4698H10.7575C11.0537 53.1803 10.8069 69.9839 10.9056 72.1472H8.14062V48.099H11.745C12.0906 48.7027 24.6811 68.6758 24.533 68.6255H24.5824C24.2367 66.6634 24.4836 50.5642 24.4342 48.1493H27.1498V72.1975Z" fill="white"/>
<path d="M44.924 72.1976H32.3828V48.1494H44.3808V50.7152H35.1478V58.7145H43.6896V61.2803H35.1478V69.6318H44.924V72.1976Z" fill="white"/>
<path d="M63.8846 50.6648H57.0709V72.1975H54.3059V50.6648H47.4922V48.099H63.8846V50.6648Z" fill="white"/>
<path d="M26.2188 6.54032C28.885 14.8415 29.9218 29.683 37.723 29.683C38.0687 29.683 39.8461 29.5824 39.303 29.4314C32.3906 27.5196 31.5512 13.0303 27.2556 5.53412C26.91 5.88629 26.5644 6.23846 26.2188 6.54032Z" fill="url(#paint0_linear_4381_7195)"/>
<path d="M27.2578 5.58438C31.6028 13.1812 32.4421 27.8718 39.5521 29.532C39.8977 29.4314 41.5271 29.1798 41.0333 28.9786C34.8121 25.6078 33.0346 11.5713 28.1466 4.77942C27.8503 5.03097 27.5541 5.28252 27.2578 5.58438Z" fill="url(#paint1_linear_4381_7195)"/>
<path d="M33.4756 1.05646C31.1056 1.10677 29.0812 1.86142 26.8594 3.2701C27.3037 3.72289 27.6987 4.226 28.0937 4.77941C30.3156 2.91793 32.2906 1.7608 34.8581 1.20739C34.4631 1.10677 33.9693 1.05646 33.4756 1.05646Z" fill="#14559A"/>
<path d="M46.1637 26.1613C46.8055 25.6582 47.4474 25.0545 48.1386 24.4004C45.1762 15.5458 44.4849 -0.804944 34.9062 1.20746C42.0656 3.01863 42.9543 18.9166 46.1637 26.1613Z" fill="url(#paint2_linear_4381_7195)"/>
<path d="M34.9084 1.20739C34.4641 1.10677 33.9703 1.05646 33.4766 1.05646H36.5872C35.9947 1.05646 35.4515 1.10677 34.9084 1.20739Z" fill="#3092C4"/>
<path d="M46.0184 27.9221C45.7222 27.6203 45.4259 27.3184 45.1297 26.9662C43.7965 27.9221 42.5128 28.6265 41.1797 29.1296C43.0065 30.0855 45.8703 29.8842 47.549 29.1296C47.0059 28.7774 46.5121 28.3749 46.0184 27.9221Z" fill="#1969BC"/>
<path d="M33.0312 1.76081C39.4499 5.1819 39.9931 20.6774 45.128 26.9662C45.4736 26.7146 45.8193 26.4631 46.1649 26.1612C42.9555 18.9166 42.0668 3.01856 34.9075 1.2074C34.2656 1.35833 33.6731 1.50926 33.0312 1.76081Z" fill="url(#paint3_linear_4381_7195)"/>
<path d="M28.1406 4.77947C33.0781 11.6216 34.8062 25.9097 41.1755 29.0793C42.5086 28.6265 43.7924 27.8718 45.1255 26.9159C40.0399 20.6272 39.4474 5.18195 33.0287 1.76086C31.3993 2.36459 29.77 3.37079 28.1406 4.77947Z" fill="url(#paint4_linear_4381_7195)"/>
<path d="M23.0572 6.33907C22.2672 8.09992 21.4772 10.4645 20.5391 13.4831C22.4153 10.7664 24.3409 8.40178 26.2171 6.54031C25.9703 5.73534 25.674 4.98069 25.3778 4.32666C24.6372 4.93038 23.8472 5.58441 23.0572 6.33907Z" fill="url(#paint5_linear_4381_7195)"/>
<path d="M26.0662 3.82355C25.8194 3.97448 25.6219 4.17572 25.375 4.32665C25.6712 4.98068 25.9675 5.73533 26.2144 6.54029C26.56 6.18812 26.9056 5.88626 27.2512 5.53409C26.8562 4.93037 26.5106 4.32665 26.0662 3.82355Z" fill="#2B74B1"/>
<path d="M26.9072 3.27014C26.6603 3.42107 26.3641 3.62231 26.1172 3.82355C26.5122 4.32665 26.9072 4.93038 27.3022 5.58441C27.5984 5.33286 27.8947 5.031 28.1909 4.77945C27.7465 4.22603 27.3022 3.72293 26.9072 3.27014Z" fill="#125A9E"/>
<path d="M70.6548 0.402466C66.458 15.5458 59.5949 26.8656 51.5469 29.532C58.8049 30.4376 64.0387 19.0172 74.6048 0.402466H70.6548Z" fill="url(#paint6_linear_4381_7195)"/>
<path d="M19.2545 1.60989C19.3039 1.55958 19.3533 1.55958 19.4027 1.55958C20.0445 1.30803 20.7851 1.1571 21.4764 1.05648C13.9715 0.603685 4.9359 13.5837 0.492188 30.4879H1.28218C7.15776 19.5203 10.3177 4.57818 19.2545 1.60989Z" fill="url(#paint7_linear_4381_7195)"/>
<path d="M23.0547 6.33908C23.8447 5.58443 24.5853 4.93039 25.3753 4.32667C25.1778 3.92419 25.0297 3.57202 24.8322 3.21985C24.2397 4.02481 23.6472 5.03101 23.0547 6.33908Z" fill="#0D82CA"/>
<path d="M23.6534 1.71053C24.0978 2.11301 24.4928 2.61611 24.8384 3.21983C24.9372 3.0689 25.0853 2.96828 25.184 2.81735C24.6903 2.31425 24.1472 1.96208 23.5547 1.66022C23.6041 1.71053 23.6041 1.71053 23.6534 1.71053Z" fill="#0D82CA"/>
<path d="M4.98438 23.5451C10.9587 11.4204 14.6618 3.27012 19.1055 1.71051C13.8224 3.92416 7.89748 11.8732 4.98438 23.5451Z" fill="url(#paint8_linear_4381_7195)"/>
<path d="M25.1816 2.86768C25.0828 2.9683 24.9347 3.11923 24.8359 3.27016C25.0334 3.62233 25.2309 3.9745 25.3791 4.37698C25.6259 4.17574 25.8234 4.02481 26.0703 3.87388C25.7741 3.4714 25.4778 3.11923 25.1816 2.86768Z" fill="#127BCA"/>
<path d="M7.79843 30.4376C7.65031 30.4376 7.45281 30.4879 7.30469 30.4879C17.6734 30.6891 18.2165 20.1743 20.5865 13.5334C17.9696 17.3066 15.3527 21.7842 12.6865 26.8153C11.4028 29.1798 9.42779 30.186 7.79843 30.4376Z" fill="url(#paint9_linear_4381_7195)"/>
<path d="M7.79688 30.4377C9.47561 30.2364 11.4012 29.2302 12.685 26.765C15.3512 21.734 17.968 17.2564 20.5849 13.4831C21.523 10.4142 22.313 8.09997 23.103 6.33911C17.8693 11.4204 12.6356 19.8222 7.79688 30.4377Z" fill="url(#paint10_linear_4381_7195)"/>
<path d="M4.98434 23.5451C3.84873 25.7084 2.66374 28.0227 1.28125 30.4879H3.65123C3.99685 28.073 4.44122 25.7588 4.98434 23.5451Z" fill="#05A1E6"/>
<path d="M21.2805 1.10681H21.2311C21.1817 1.10681 21.1817 1.10681 21.1324 1.10681H21.083C21.0336 1.10681 21.0336 1.10681 20.9842 1.10681H20.9349C20.8855 1.10681 20.7867 1.10681 20.7374 1.15712C20.688 1.15712 20.688 1.15712 20.6386 1.15712H20.5892C20.5399 1.15712 20.5399 1.15712 20.4905 1.15712H20.4411C20.3424 1.20743 20.2436 1.20743 20.0955 1.25774C20.0955 1.25774 20.0955 1.25774 20.0461 1.25774C19.9967 1.25774 19.9967 1.25774 19.9474 1.30805H19.898C19.8486 1.30805 19.8486 1.30805 19.7992 1.35836C19.7992 1.35836 19.7992 1.35836 19.7499 1.35836C19.7005 1.45898 19.6511 1.50929 19.5524 1.50929C19.503 1.50929 19.503 1.50929 19.4536 1.5596H19.4042C19.3549 1.5596 19.3549 1.5596 19.3055 1.60991C19.3055 1.60991 19.3055 1.60991 19.2561 1.60991C14.0718 3.72294 11.1587 11.4204 4.98686 23.5451C4.44374 25.7085 3.99937 28.073 3.70312 30.4879C4.73999 30.4879 5.13499 30.4879 6.31998 30.4879C6.6656 30.4879 7.01122 30.4879 7.35684 30.4879C7.40622 30.4879 7.50497 30.4879 7.60372 30.4879C7.65309 30.4879 7.65309 30.4879 7.70247 30.4879C7.75184 30.4879 7.75184 30.4879 7.80122 30.4879C12.6399 19.9228 17.8736 11.4707 23.1073 6.38938C23.6998 5.08131 24.243 4.07511 24.8848 3.27015C24.5392 2.66643 24.1442 2.11301 23.6998 1.76084C23.6505 1.76084 23.6505 1.76084 23.6505 1.71053C23.6011 1.71053 23.6011 1.71053 23.6011 1.66022C23.6011 1.66022 23.5517 1.66022 23.5517 1.60991C23.5023 1.60991 23.5023 1.60991 23.453 1.5596C23.453 1.5596 23.4036 1.5596 23.4036 1.50929C23.2061 1.5596 23.1567 1.50929 23.1073 1.50929H23.058C23.0086 1.50929 23.0086 1.45898 22.9592 1.45898H22.9098C22.8605 1.45898 22.8111 1.40867 22.7617 1.40867C22.7123 1.40867 22.663 1.35836 22.6136 1.35836C22.6136 1.35836 22.6136 1.35836 22.5642 1.35836C22.5148 1.35836 22.4655 1.30805 22.4161 1.30805C22.4161 1.30805 22.4161 1.30805 22.3667 1.30805C22.268 1.25774 22.1198 1.25774 22.0211 1.20743C22.0211 1.20743 22.0211 1.20743 21.9717 1.20743C21.9223 1.20743 21.873 1.20743 21.8236 1.20743C21.8236 1.20743 21.8236 1.20743 21.7742 1.20743C21.7248 1.20743 21.6755 1.20743 21.5767 1.20743H21.6261C21.5767 1.20743 21.5274 1.20743 21.478 1.20743C21.4286 1.10681 21.3299 1.10681 21.2805 1.10681Z" fill="url(#paint11_linear_4381_7195)"/>
<path d="M56.4806 8.30119C55.2956 12.1751 54.3081 15.3949 53.4688 18.011C56.7275 13.4328 59.9368 7.64716 62.998 1.00623C59.4431 2.21367 57.5668 4.8298 56.4806 8.30119Z" fill="url(#paint12_linear_4381_7195)"/>
<path d="M53.5641 28.7774C53.4159 28.878 53.2184 28.9283 53.0703 29.0289C59.4396 26.1612 66.994 14.6905 70.6477 0.452759H69.9071C61.5627 15.5961 58.8965 25.7588 53.5641 28.7774Z" fill="url(#paint13_linear_4381_7195)"/>
<path d="M49.4166 27.5196C50.799 25.8091 51.9347 22.8911 53.4653 18.0613C51.6878 20.5265 49.9103 22.6899 48.1328 24.4004C48.5278 25.6079 48.9228 26.6644 49.4166 27.5196Z" fill="#079AE1"/>
<path d="M49.4231 27.5197C48.8306 28.224 48.2875 28.7271 47.5469 29.0793C48.1394 29.3811 48.7812 29.6327 49.4725 29.683C50.1637 29.7836 50.855 29.7333 51.4968 29.5824C50.7068 29.2805 50.0156 28.5259 49.4231 27.5197Z" fill="#1969BC"/>
<path d="M37.7266 29.7333C38.9116 29.7333 40.0472 29.4817 41.1828 29.0792C42.0222 29.4817 42.9603 29.7333 43.8984 29.7333H37.7266Z" fill="#1E5CB3"/>
<path d="M43.9453 29.7333C45.4266 29.7333 46.5622 29.532 47.5497 29.0792C48.1422 29.3811 48.784 29.6326 49.4753 29.6829C49.6728 29.6829 49.9196 29.7333 50.1665 29.7333H43.9453Z" fill="#1E5CB3"/>
<path d="M50.1641 29.7332C50.6084 29.7332 51.1022 29.6829 51.5465 29.5823C51.8428 29.6829 52.139 29.7332 52.4353 29.7332H50.1641Z" fill="#1D60B5"/>
<path d="M48.1422 24.4004C47.1547 25.3563 46.2166 26.1612 45.1797 26.9159C45.8709 27.7712 46.6609 28.5258 47.599 29.0289C48.3397 28.6768 48.9322 28.1736 49.4753 27.4693C48.9322 26.6643 48.5372 25.6078 48.1422 24.4004Z" fill="#175FAB"/>
<path d="M67.5917 0.402466C67.3449 0.402466 64.2836 0.402466 64.1849 0.402466H63.8886C63.6911 0.402466 63.4936 0.402466 63.2961 0.452776C63.1974 0.654016 63.0986 0.855257 62.9999 1.0565C59.9387 7.69743 56.7293 13.4831 53.4706 18.0613C51.94 22.8911 50.8044 25.8091 49.4219 27.5196C50.0144 28.5258 50.7056 29.2805 51.4956 29.5823H51.545H51.5944C51.6437 29.5823 51.6437 29.5823 51.6931 29.532H51.7425C51.7919 29.532 51.7919 29.532 51.8412 29.532H51.8906C51.94 29.532 51.9894 29.4817 52.0387 29.4817H52.0881C52.1375 29.4817 52.1375 29.4817 52.1869 29.4314C52.2362 29.4314 52.2362 29.4314 52.2856 29.3811H52.335C52.3843 29.3811 52.4337 29.3308 52.4831 29.3308H52.5325C52.5818 29.3308 52.5818 29.3308 52.6312 29.2805H52.6806C52.7793 29.2302 52.9275 29.1799 53.0262 29.1296C53.1743 29.0792 53.3718 28.9786 53.52 28.878C58.8524 25.8594 61.5186 15.6967 69.863 0.503086L67.5917 0.402466Z" fill="url(#paint14_linear_4381_7195)"/>
<path d="M21.4766 1.10678C21.6247 1.10678 21.7234 1.10678 21.8716 1.15709C22.1678 1.2074 22.5134 1.25771 22.7603 1.40864C23.649 1.71051 24.4884 2.21361 25.1797 2.91795C25.3772 2.71671 25.5747 2.51547 25.7722 2.36454C24.5378 1.45895 23.0565 0.955853 21.4766 1.10678Z" fill="#7DCBEC"/>
<path d="M25.1797 2.86762C25.4759 3.16948 25.7722 3.47134 26.0684 3.82351C26.3153 3.62227 26.6115 3.47134 26.8584 3.2701C26.5128 2.91793 26.1178 2.56576 25.7228 2.31421C25.5747 2.46514 25.3772 2.66638 25.1797 2.86762Z" fill="#5EC5ED"/>
<path d="M21.4778 1.10677C23.0578 0.955837 24.539 1.45894 25.7734 2.31421C26.9584 1.35832 28.3409 1.05646 30.3159 1.05646H20.8359C21.0334 1.05646 21.2803 1.05646 21.4778 1.10677Z" fill="url(#paint15_linear_4381_7195)"/>
<path d="M30.3159 1.05646C28.3409 1.05646 26.9584 1.35832 25.7734 2.31421C26.1684 2.61607 26.5141 2.91793 26.8597 3.2701C29.0815 1.86142 31.0565 1.05646 33.4759 1.05646H30.3159Z" fill="url(#paint16_linear_4381_7195)"/>
<path d="M53.4653 18.0613C55.539 13.0806 56.0327 2.91795 62.9946 1.05648C63.0933 0.85524 63.1921 0.653999 63.2908 0.452759C57.4646 0.80493 54.749 3.82354 53.3665 8.30114C50.9472 16.0992 49.5153 21.1805 48.1328 24.4004C49.9103 22.6395 51.6878 20.5265 53.4653 18.0613Z" fill="url(#paint17_linear_4381_7195)"/>
<path d="M62.015 27.6203H61.3731V29.7333H61.1262V27.6203H60.4844V27.3687H62.0644V27.6203H62.015Z" fill="white"/>
<path d="M64.7269 29.7333H64.48C64.48 29.3811 64.48 28.0731 64.48 27.7209C64.5294 27.7712 63.6406 29.6327 63.6406 29.7333H63.4925C63.4431 29.5824 62.6037 27.7712 62.6531 27.7209C62.7025 27.9724 62.6531 29.4314 62.6531 29.7333H62.4062V27.3687H62.7519C62.8506 27.57 63.5419 29.1296 63.5419 29.2805C63.5912 29.0793 64.2825 27.57 64.3812 27.3687H64.7269V29.7333Z" fill="white"/>
</g>
<defs>
<linearGradient id="paint0_linear_4381_7195" x1="32.8178" y1="0.858017" x2="32.8178" y2="36.8756" gradientUnits="userSpaceOnUse">
<stop stop-color="#0994DC"/>
<stop offset="0.35" stop-color="#66CEF5"/>
<stop offset="0.8462" stop-color="#127BCA"/>
<stop offset="1" stop-color="#127BCA"/>
</linearGradient>
<linearGradient id="paint1_linear_4381_7195" x1="34.1694" y1="-0.0560725" x2="34.1694" y2="36.8796" gradientUnits="userSpaceOnUse">
<stop stop-color="#0E76BC"/>
<stop offset="0.36" stop-color="#36AEE8"/>
<stop offset="0.8462" stop-color="#00ADEF"/>
<stop offset="1" stop-color="#00ADEF"/>
</linearGradient>
<linearGradient id="paint2_linear_4381_7195" x1="41.5074" y1="28.8926" x2="41.5074" y2="-0.504443" gradientUnits="userSpaceOnUse">
<stop stop-color="#1C63B7"/>
<stop offset="0.5" stop-color="#33BDF2"/>
<stop offset="1" stop-color="#33BDF2" stop-opacity="0.4196"/>
</linearGradient>
<linearGradient id="paint3_linear_4381_7195" x1="39.6146" y1="-3.79193" x2="39.6146" y2="34.5563" gradientUnits="userSpaceOnUse">
<stop stop-color="#166AB8"/>
<stop offset="0.4" stop-color="#36AEE8"/>
<stop offset="0.8462" stop-color="#0798DD"/>
<stop offset="1" stop-color="#0798DD"/>
</linearGradient>
<linearGradient id="paint4_linear_4381_7195" x1="36.6414" y1="-3.58949" x2="36.6414" y2="37.1826" gradientUnits="userSpaceOnUse">
<stop stop-color="#124379"/>
<stop offset="0.39" stop-color="#1487CB"/>
<stop offset="0.7802" stop-color="#165197"/>
<stop offset="1" stop-color="#165197"/>
</linearGradient>
<linearGradient id="paint5_linear_4381_7195" x1="20.5705" y1="8.92138" x2="26.2289" y2="8.92138" gradientUnits="userSpaceOnUse">
<stop stop-color="#33BDF2" stop-opacity="0.698"/>
<stop offset="1" stop-color="#1DACD8"/>
</linearGradient>
<linearGradient id="paint6_linear_4381_7195" x1="63.0603" y1="28.0444" x2="63.0603" y2="-0.471944" gradientUnits="userSpaceOnUse">
<stop stop-color="#136AB4"/>
<stop offset="0.6" stop-color="#59CAF5" stop-opacity="0.549"/>
<stop offset="1" stop-color="#59CAF5" stop-opacity="0.2353"/>
</linearGradient>
<linearGradient id="paint7_linear_4381_7195" x1="0.490698" y1="15.7732" x2="21.4787" y2="15.7732" gradientUnits="userSpaceOnUse">
<stop stop-color="#05A1E6" stop-opacity="0.2471"/>
<stop offset="1" stop-color="#05A1E6"/>
</linearGradient>
<linearGradient id="paint8_linear_4381_7195" x1="12.0352" y1="28.8576" x2="12.0352" y2="-0.364218" gradientUnits="userSpaceOnUse">
<stop stop-color="#318ED5"/>
<stop offset="1" stop-color="#38A7E4"/>
</linearGradient>
<linearGradient id="paint9_linear_4381_7195" x1="13.923" y1="28.9847" x2="13.923" y2="0.487637" gradientUnits="userSpaceOnUse">
<stop stop-color="#05A1E6"/>
<stop offset="1" stop-color="#05A1E6" stop-opacity="0.549"/>
</linearGradient>
<linearGradient id="paint10_linear_4381_7195" x1="15.4289" y1="30.4279" x2="15.4289" y2="6.34872" gradientUnits="userSpaceOnUse">
<stop stop-color="#1959A6"/>
<stop offset="0.5" stop-color="#05A1E6"/>
<stop offset="0.9176" stop-color="#7EC5EA"/>
<stop offset="1" stop-color="#7EC5EA"/>
</linearGradient>
<linearGradient id="paint11_linear_4381_7195" x1="16.3406" y1="28.8916" x2="8.0548" y2="4.03772" gradientUnits="userSpaceOnUse">
<stop stop-color="#165096"/>
<stop offset="1" stop-color="#0D82CA"/>
</linearGradient>
<linearGradient id="paint12_linear_4381_7195" x1="58.2486" y1="14.1331" x2="58.2486" y2="0.489267" gradientUnits="userSpaceOnUse">
<stop stop-color="#05A1E6"/>
<stop offset="0.8736" stop-color="#0495D6"/>
<stop offset="1" stop-color="#0495D6"/>
</linearGradient>
<linearGradient id="paint13_linear_4381_7195" x1="64.5427" y1="-0.776532" x2="51.6666" y2="27.2729" gradientUnits="userSpaceOnUse">
<stop stop-color="#38A7E4" stop-opacity="0.3294"/>
<stop offset="0.9615" stop-color="#0E88D3"/>
<stop offset="1" stop-color="#0E88D3"/>
</linearGradient>
<linearGradient id="paint14_linear_4381_7195" x1="59.663" y1="0.323032" x2="59.663" y2="30.0868" gradientUnits="userSpaceOnUse">
<stop stop-color="#168CD4"/>
<stop offset="0.5" stop-color="#1C87CC"/>
<stop offset="1" stop-color="#154B8D"/>
</linearGradient>
<linearGradient id="paint15_linear_4381_7195" x1="22.421" y1="-0.285946" x2="22.5524" y2="2.83515" gradientUnits="userSpaceOnUse">
<stop stop-color="#97D6EE"/>
<stop offset="0.7033" stop-color="#55C1EA"/>
<stop offset="1" stop-color="#55C1EA"/>
</linearGradient>
<linearGradient id="paint16_linear_4381_7195" x1="26.3089" y1="3.12767" x2="26.902" y2="-0.1738" gradientUnits="userSpaceOnUse">
<stop stop-color="#7ACCEC"/>
<stop offset="1" stop-color="#3FB7ED"/>
</linearGradient>
<linearGradient id="paint17_linear_4381_7195" x1="55.7111" y1="1.97966" x2="55.7111" y2="31.0911" gradientUnits="userSpaceOnUse">
<stop stop-color="#1DA7E7"/>
<stop offset="1" stop-color="#37ABE7" stop-opacity="0"/>
</linearGradient>
<clipPath id="clip0_4381_7195">
<rect width="75" height="73" fill="white"/>
</clipPath>
</defs>
</svg>
