<svg width="48" height="48" viewBox="0 0 48 48" fill="none" xmlns="http://www.w3.org/2000/svg">
<path d="M34.0984 40.56C32.1384 42.46 29.9984 42.16 27.9384 41.26C25.7584 40.34 23.7584 40.3 21.4584 41.26C18.5784 42.5 17.0584 42.14 15.3384 40.56C5.57837 30.5 7.01838 15.18 18.0984 14.62C20.7984 14.76 22.6784 16.1 24.2584 16.22C26.6184 15.74 28.8784 14.36 31.3984 14.54C34.4184 14.78 36.6984 15.98 38.1984 18.14C31.9584 21.88 33.4384 30.1 39.1584 32.4C38.0184 35.4 36.5384 38.38 34.0784 40.58L34.0984 40.56ZM24.0584 14.5C23.7584 10.04 27.3784 6.36 31.5384 6C32.1184 11.16 26.8584 15 24.0584 14.5Z" fill="white"/>
</svg>
